<?xml version="1.0" standalone="no"?>
<!DOCTYPE svg PUBLIC "-//W3C//DTD SVG 20010904//EN"
 "http://www.w3.org/TR/2001/REC-SVG-20010904/DTD/svg10.dtd">
<svg version="1.0" xmlns="http://www.w3.org/2000/svg"
 width="2995.000000pt" height="524.000000pt" viewBox="0 0 2995.000000 524.000000"
 preserveAspectRatio="xMidYMid meet">
<metadata>
Created by potrace 1.14, written by Peter Selinger 2001-2017
</metadata>
<g transform="translate(0.000000,524.000000) scale(0.100000,-0.100000)"
fill="#8f0000" stroke="none">
<path d="M1585 5228 c-825 -93 -1468 -730 -1565 -1550 -15 -130 -8 -418 13
-533 70 -372 212 -656 456 -909 305 -314 679 -493 1126 -537 336 -33 702 38
1013 195 l49 25 216 -217 217 -217 -25 -49 c-30 -59 -31 -106 -6 -161 13 -27
219 -240 640 -660 l621 -620 257 258 258 257 -620 620 c-411 412 -634 627
-661 640 -55 27 -102 25 -160 -6 l-49 -26 -327 333 -326 332 -36 -31 c-142
-125 -399 -242 -633 -289 -122 -24 -402 -24 -528 1 -510 101 -903 438 -1060
909 -60 180 -70 249 -70 472 0 173 3 214 23 304 112 497 457 875 943 1029 165
53 262 66 474 66 212 -1 317 -17 482 -75 332 -117 617 -372 738 -657 66 -157
80 -235 79 -447 0 -164 -3 -201 -22 -269 -70 -253 -234 -419 -464 -470 l-28
-6 0 680 0 680 -210 0 -210 0 0 -121 0 -121 -41 62 c-102 151 -277 228 -494
217 -223 -12 -394 -98 -527 -265 -127 -160 -184 -328 -195 -572 -16 -392 147
-716 432 -855 190 -94 430 -99 605 -13 73 35 177 133 200 189 14 32 15 27 20
-111 l5 -145 142 2 c312 4 572 83 771 233 263 198 392 489 392 887 0 150 -11
247 -45 380 -142 557 -641 1010 -1250 1132 -196 39 -432 51 -620 29z m285
-1274 c113 -32 207 -131 251 -266 21 -65 24 -91 24 -233 0 -140 -3 -169 -23
-230 -63 -191 -210 -298 -387 -282 -90 9 -155 39 -214 101 -96 102 -134 217
-134 411 0 139 18 229 64 316 87 163 246 232 419 183z"/>
<path d="M16975 4557 c-119 -31 -214 -111 -268 -225 -29 -61 -32 -75 -32 -167
0 -92 3 -106 32 -167 41 -88 113 -160 201 -201 62 -29 75 -32 167 -32 130 1
192 24 279 105 102 96 144 216 125 358 -18 131 -125 266 -246 312 -71 27 -189
34 -258 17z"/>
<path d="M18080 4440 l0 -130 160 0 160 0 0 -1395 0 -1395 -160 0 -160 0 0
-130 0 -130 700 0 700 0 0 130 0 130 -165 0 -165 0 0 1525 0 1525 -535 0 -535
0 0 -130z"/>
<path d="M22410 4493 c-353 -36 -586 -136 -773 -332 -69 -73 -94 -109 -136
-193 -79 -159 -96 -244 -96 -473 0 -164 3 -202 23 -280 48 -192 147 -334 306
-440 161 -107 300 -156 761 -271 382 -95 464 -119 584 -176 144 -68 213 -159
234 -304 37 -251 -94 -448 -348 -523 -191 -56 -478 -54 -685 6 -289 83 -469
273 -543 573 l-22 90 -133 0 -132 0 2 -377 3 -377 105 -34 c231 -74 498 -132
760 -164 159 -19 587 -16 730 5 531 79 843 324 923 727 50 246 19 529 -79 728
-97 196 -285 345 -557 441 -49 17 -244 69 -433 116 -536 133 -691 191 -784
292 -70 77 -94 156 -88 297 3 91 7 109 36 169 75 152 244 230 527 244 228 10
421 -23 575 -99 161 -79 281 -236 335 -440 l22 -83 136 -3 137 -3 0 350 0 350
-52 15 c-398 115 -825 178 -1167 174 -75 0 -152 -3 -171 -5z"/>
<path d="M5710 4310 l0 -130 205 0 205 0 0 -1330 0 -1330 -205 0 -205 0 0
-130 0 -130 1450 0 1450 0 0 375 0 375 -145 0 -145 0 0 -230 0 -230 -690 0
-690 0 0 645 0 645 415 0 415 0 0 -200 0 -200 145 0 145 0 0 545 0 545 -145 0
-145 0 0 -200 0 -200 -415 0 -415 0 0 510 0 510 670 0 670 0 0 -230 0 -230
145 0 145 0 0 375 0 375 -1430 0 -1430 0 0 -130z"/>
<path d="M10605 3569 c-207 -30 -365 -128 -522 -324 l-32 -40 -1 158 0 157
-535 0 -535 0 0 -130 0 -130 160 0 160 0 0 -870 0 -870 -160 0 -160 0 0 -130
0 -130 670 0 670 0 0 130 0 130 -135 0 -135 0 0 558 c0 306 5 605 10 664 11
110 37 213 72 282 34 66 112 141 181 172 54 25 74 28 157 29 204 0 269 -68
300 -315 6 -51 10 -346 10 -737 l0 -653 -135 0 -135 0 0 -130 0 -130 650 0
650 0 0 130 0 130 -135 0 -136 0 3 653 c4 717 3 698 68 832 71 148 191 225
351 225 134 0 232 -63 263 -170 34 -116 38 -207 43 -872 l5 -668 -136 0 -136
0 0 -130 0 -130 670 0 670 0 0 130 0 130 -160 0 -160 0 0 638 c0 390 -4 672
-11 727 -27 228 -90 378 -208 496 -128 129 -274 185 -506 196 -318 15 -581
-107 -765 -356 -25 -33 -47 -60 -50 -60 -3 0 -27 38 -55 85 -85 146 -219 253
-375 297 -122 35 -309 46 -445 26z"/>
<path d="M14410 3569 c-181 -16 -400 -59 -557 -110 l-63 -21 0 -249 0 -249
123 0 122 0 22 74 c27 89 89 185 150 231 91 69 231 102 398 92 170 -11 280
-53 359 -137 82 -87 114 -189 123 -386 l6 -132 -329 -5 c-274 -4 -348 -8 -444
-25 -370 -67 -578 -219 -667 -487 -25 -73 -27 -94 -27 -245 -1 -188 12 -254
71 -380 27 -57 54 -93 112 -150 122 -121 261 -176 476 -187 288 -15 524 70
722 260 l83 80 0 -142 0 -141 540 0 540 0 0 130 0 130 -164 0 -165 0 -3 668
-4 667 -26 97 c-90 329 -301 510 -686 587 -190 39 -475 51 -712 30z m680
-1381 c0 -134 -5 -272 -11 -308 -22 -137 -100 -243 -217 -298 -50 -23 -70 -27
-157 -27 -110 0 -172 20 -228 73 -66 63 -107 192 -107 344 0 154 38 266 116
344 89 90 173 112 427 113 l177 1 0 -242z"/>
<path d="M25935 3569 c-194 -29 -366 -131 -457 -272 l-33 -52 -3 138 -3 137
-539 0 -540 0 0 -130 0 -130 160 0 160 0 0 -1325 0 -1325 -160 0 -160 0 0
-130 0 -130 715 0 715 0 0 130 0 130 -175 0 -175 0 0 460 c0 253 2 460 4 460
2 0 18 -22 36 -50 73 -114 217 -212 367 -251 164 -42 401 -35 581 17 370 107
620 426 686 877 33 221 16 531 -40 724 -100 344 -324 588 -629 682 -146 45
-358 62 -510 40z m73 -342 c93 -33 171 -114 207 -217 93 -260 95 -949 4 -1223
-39 -120 -122 -209 -223 -240 -23 -6 -86 -12 -141 -12 -93 0 -105 2 -167 33
-107 52 -168 139 -207 293 -36 140 -43 260 -38 596 5 338 14 418 66 553 43
112 129 194 237 225 61 18 203 14 262 -8z"/>
<path d="M16420 3390 l0 -130 160 0 160 0 0 -870 0 -870 -160 0 -160 0 0 -130
0 -130 700 0 700 0 0 130 0 130 -165 0 -165 0 0 1000 0 1000 -535 0 -535 0 0
-130z"/>
<path d="M27250 3390 l0 -130 123 0 c119 0 124 -1 134 -22 5 -13 227 -528 493
-1146 l482 -1124 -36 -86 c-79 -187 -144 -275 -234 -319 -51 -25 -68 -28 -157
-28 -92 0 -104 2 -153 29 -81 45 -114 104 -137 249 l-6 37 -119 0 -120 0 0
-235 0 -234 38 -10 c242 -65 391 -87 538 -78 249 16 404 117 521 344 28 54
277 666 553 1361 l503 1262 139 0 138 0 0 130 0 130 -425 0 -425 0 0 -130 0
-130 149 0 150 0 -267 -664 c-147 -366 -270 -662 -273 -658 -5 5 -537 1236
-566 1310 -4 9 26 12 131 12 l136 0 0 130 0 130 -655 0 -655 0 0 -130z"/>
</g>
</svg>
