<?xml version="1.0" standalone="no"?>
<!DOCTYPE svg PUBLIC "-//W3C//DTD SVG 20010904//EN"
 "http://www.w3.org/TR/2001/REC-SVG-20010904/DTD/svg10.dtd">
<svg version="1.0" xmlns="http://www.w3.org/2000/svg"
 width="485.000000pt" height="524.000000pt" viewBox="0 0 485.000000 524.000000"
 preserveAspectRatio="xMidYMid meet">
<metadata>
Created by potrace 1.14, written by Peter Selinger 2001-2017
</metadata>
<g transform="translate(0.000000,524.000000) scale(0.100000,-0.100000)"
fill="#000000" stroke="none">
<path d="M1585 5228 c-825 -93 -1468 -730 -1565 -1550 -15 -130 -8 -418 13
-533 70 -372 212 -656 456 -909 305 -314 679 -493 1126 -537 336 -33 702 38
1013 195 l49 25 216 -217 217 -217 -25 -49 c-30 -59 -31 -106 -6 -161 13 -27
219 -240 640 -660 l621 -620 257 258 257 258 -619 620 c-412 411 -634 626
-661 639 -55 27 -102 25 -160 -6 l-49 -26 -327 333 -326 332 -36 -31 c-142
-125 -399 -242 -633 -289 -122 -24 -402 -24 -528 1 -510 101 -903 438 -1060
909 -60 180 -70 249 -70 472 0 173 3 214 23 304 112 497 457 875 943 1029 165
53 262 66 474 66 212 -1 317 -17 482 -75 332 -117 617 -372 738 -657 66 -157
80 -235 79 -447 0 -164 -3 -201 -22 -269 -70 -253 -234 -419 -464 -470 l-28
-6 0 680 0 680 -210 0 -210 0 0 -121 0 -121 -41 62 c-102 151 -277 228 -494
217 -223 -12 -394 -98 -527 -265 -127 -160 -184 -328 -195 -572 -16 -392 147
-716 432 -855 190 -94 430 -99 605 -13 73 35 177 133 200 189 14 32 15 27 20
-111 l5 -145 142 2 c312 4 572 83 771 233 263 198 392 489 392 887 0 150 -11
247 -45 380 -142 557 -641 1010 -1250 1132 -196 39 -432 51 -620 29z m285
-1274 c113 -32 207 -131 251 -266 21 -65 24 -91 24 -233 0 -140 -3 -169 -23
-230 -63 -191 -210 -298 -387 -282 -90 9 -155 39 -214 101 -96 102 -134 217
-134 411 0 139 18 229 64 316 87 163 246 232 419 183z"/>
</g>
</svg>
